PathFileType	4	(X/Y/Z)	C:\Users\Biomechanik\SynologyDrive\AlexP\Athlete_03\Athlete_3_25_03_31\Walking_01\marker_experimental.trc
DataRate	CameraRate	NumFrames	NumMarkers	Units	OrigDataRate	OrigDataStartFrame	OrigNumFrames
200.000000	200.000000	4	53	mm	200.000000	149	239
Frame#	Time	GLAB			RFHD			LFHD			C7			T6			SPINMOL			SPINM2			SPINM3			T12			BELTOL			BELT2			BELT3			SACROL			SACR2			SACR3			LTHOL			LTH2			LTH3			LSHAOL			LSHA2			LSHA3			LHEE			LTOE			LM5			RTHOL			RTH2			RTH3			RSHAOL			RSHA2			RSHA3			RHEE			RTOE			RM5			STRN			XIPH			LACR			LUAOL			LUA2			LUA3			LLAOL			LLA2			LLA3			LWRR			LWRU			RACR			RUAOL			RUA2			RUA3			RLAOL			RLA2			RLA3			RWRR			RWRU			
		X1	Y1	Z1	X2	Y2	Z2	X3	Y3	Z3	X4	Y4	Z4	X5	Y5	Z5	X6	Y6	Z6	X7	Y7	Z7	X8	Y8	Z8	X9	Y9	Z9	X10	Y10	Z10	X11	Y11	Z11	X12	Y12	Z12	X13	Y13	Z13	X14	Y14	Z14	X15	Y15	Z15	X16	Y16	Z16	X17	Y17	Z17	X18	Y18	Z18	X19	Y19	Z19	X20	Y20	Z20	X21	Y21	Z21	X22	Y22	Z22	X23	Y23	Z23	X24	Y24	Z24	X25	Y25	Z25	X26	Y26	Z26	X27	Y27	Z27	X28	Y28	Z28	X29	Y29	Z29	X30	Y30	Z30	X31	Y31	Z31	X32	Y32	Z32	X33	Y33	Z33	X34	Y34	Z34	X35	Y35	Z35	X36	Y36	Z36	X37	Y37	Z37	X38	Y38	Z38	X39	Y39	Z39	X40	Y40	Z40	X41	Y41	Z41	X42	Y42	Z42	X43	Y43	Z43	X44	Y44	Z44	X45	Y45	Z45	X46	Y46	Z46	X47	Y47	Z47	X48	Y48	Z48	X49	Y49	Z49	X50	Y50	Z50	X51	Y51	Z51	X52	Y52	Z52	X53	Y53	Z53	

150	0.745	501.263214111328	1589.308837890625	180.7388000488282	449.243682861328	1617.591918945312	242.8882446289063	458.8698730468749	1606.225708007812	105.185890197754	278.6981506347655	1424.705078125	178.1377868652344	219.9793853759764	1256.717895507812	183.0627593994141	211.9805755615233	1215.722778320312	163.7414245605469	205.7572174072264	1210.247680664062	213.455307006836	215.885528564453	1152.249145507812	182.2583770751953	240.6393585205077	1086.106201171875	186.8575134277344	203.4825286865234	1049.063720703125	174.3489074707032	202.6022491455077	1047.788208007812	224.8717651367188	199.0043029785155	987.17919921875	196.4696197509766	216.9836273193359	938.1275024414062	169.0109405517578	216.4631042480468	934.1145629882812	220.1692504882813	203.8516540527343	876.2974853515625	190.186752319336	392.3975830078124	658.715576171875	15.9422798156739	359.8678588867187	590.0027465820312	37.9411582946778	407.7866821289062	601.0819702148438	29.79658508300789	453.3639526367188	315.2661437988281	33.84902572631844	410.4800109863281	248.8592376708985	44.66292953491219	460.3526611328125	254.2469482421875	43.56141281127938	402.5949096679688	65.45783233642581	138.2647552490235	622.4280395507812	45.54913330078129	129.0861053466798	570.3654174804688	32.030143737793	30.87969970703135	284.6015014648436	666.4321899414062	390.7208251953126	336.655303955078	611.9228515625	416.5059509277344	294.9862670898436	605.6990356445312	389.6450805664063	184.9188842773436	407.8095703125	401.0175170898438	153.6678924560546	335.3024597167969	396.3291931152344	135.1864318847655	377.89501953125	378.4270629882812	-17.46356773376471	285.8141174316406	257.1451721191406	12.19210910797113	77.89606475830078	282.4689636230469	-30.09192276000984	127.2743835449219	374.1608581542969	448.6396179199218	1322.79931640625	184.4192352294923	464.2219238281249	1178.514770507812	192.6360778808595	360.4161376953124	1377.924682617188	5.868554115295477	342.4762573242187	1218.66259765625	-89.09056854248041	322.9992370605468	1157.655883789062	-104.9626312255859	369.9049072265624	1158.770385742188	-84.59495544433587	334.0390930175781	956.04248046875	-128.8717346191406	288.5468749999999	893.7538452148438	-110.636131286621	334.5466308593749	894.306884765625	-129.6570892333984	344.9003601074218	791.3917236328125	-135.4131927490234	389.7846374511718	786.005126953125	-69.76273345947259	363.2323303222655	1386.5166015625	349.5658569335938	359.150909423828	1243.761962890625	453.8572082519532	388.6451721191405	1185.12744140625	463.2390136718751	340.0095825195311	1185.67431640625	479.5257568359376	424.2141723632811	972.2646484375	509.2702331542969	497.8744201660155	944.9793090820312	525.4362792968751	458.433868408203	920.1304931640625	506.4297485351563	527.3554077148436	860.0598754882812	507.9306030273439	561.8002319335936	867.9139404296875	433.9930419921876	
151	0.75	507.935089111328	1590.376708984375	179.8927764892579	455.9197998046873	1618.711669921875	242.0241241455079	465.580841064453	1607.326538085938	104.3228073120118	285.2924499511717	1425.849609375	177.2855072021485	226.6212158203124	1257.794189453125	182.0344848632813	218.641387939453	1216.80322265625	162.675521850586	212.3996429443358	1211.292602539062	212.3825988769532	222.6026153564452	1153.322998046875	181.1622619628907	247.4189300537109	1087.216186523438	185.7816467285157	210.1031494140624	1049.946899414062	173.0316162109375	209.1484985351562	1048.6708984375	223.5546264648438	205.6470794677734	988.0582275390625	195.1462860107422	223.6660919189452	939.297119140625	168.01171875	223.3333282470702	935.1381225585938	219.1394653320313	210.5433807373046	877.432373046875	189.0740203857422	396.9723510742187	659.420166015625	15.27177238464363	363.6366271972656	591.0399780273438	37.14694976806647	411.6176147460937	601.67822265625	29.13396453857429	454.5809936523438	315.2876586914062	33.79431915283212	411.3172912597656	249.1644592285157	44.77820587158211	461.2222595214844	254.2321319580078	43.46622848510751	402.6988830566406	65.56745910644534	138.4375457763673	622.4732666015625	45.46445465087894	129.1621704101564	570.345458984375	32.09636688232425	30.85423278808604	294.641632080078	666.5548095703125	390.1778564453126	347.4729003906249	612.9238891601562	416.3374938964844	306.0217285156249	605.9500122070312	389.3441772460938	198.4107513427733	409.7035522460938	400.2363281250001	166.6481628417968	337.4122924804688	395.5291748046876	148.6295166015624	380.0638122558594	377.3418579101562	-4.408467292785709	288.7120056152344	254.882080078125	25.37748908996576	80.57197570800781	282.2071838378906	-17.63899230957039	130.9857482910156	372.891357421875	455.2652282714843	1324.01025390625	183.7012939453126	470.9191589355468	1179.744262695312	191.8362579345704	367.2082824707031	1379.173828125	5.072813034057685	350.0688781738281	1219.946166992188	-90.06487274169915	330.8885803222656	1158.894165039062	-106.0277252197265	377.7260131835937	1160.167602539062	-85.49624633789055	343.3950805664062	957.1211547851562	-129.9393768310546	298.4205627441406	894.4169921875	-111.8436889648437	344.5259094238281	895.3831787109375	-130.577896118164	355.9014282226562	792.5299072265625	-136.0170288085937	400.7221679687499	787.8292236328125	-70.19831848144524	369.6044006347655	1387.5888671875	348.8639831542969	365.1048278808593	1244.730590820312	453.0486145019532	394.4357910156249	1186.029541015625	462.4208068847657	345.8209838867186	1186.715087890625	478.7886352539063	427.9023132324217	972.6009521484375	508.6853332519532	501.118438720703	944.2407836914062	525.2145996093751	461.3394470214842	919.9205322265625	506.1708679199219	529.3607788085936	858.8818969726562	508.172332763672	563.8826293945311	865.6499633789062	434.155487060547	
152	0.755	514.5817871093749	1591.450927734375	179.0924682617188	462.5715026855467	1619.831298828125	241.2110290527345	472.2626342773436	1608.438354492188	103.5087356567384	291.8624572753905	1427.00244140625	176.4725646972657	233.2303924560546	1258.880493164062	181.0280456542969	225.2695465087889	1217.894409179688	161.6305847167969	219.0074157714843	1212.346801757812	211.3302764892578	229.2846679687499	1154.406860351562	180.0854797363282	254.1603851318359	1088.338500976562	184.7253723144532	216.7285614013671	1050.906616210938	171.6988525390625	215.6874542236327	1049.624389648438	222.2218322753907	212.2608337402343	989.01416015625	193.7992401123047	230.305923461914	940.4932861328125	167.0814361572266	230.1561279296874	936.2164306640625	218.1868896484375	217.2010498046874	878.604248046875	188.0594787597657	401.4516601562499	660.1279296875	14.62020397186287	367.2823486328124	592.093017578125	36.3364219665528	415.3358459472656	602.284423828125	28.45972061157234	455.7587280273438	315.3046264648438	33.69898605346688	412.1298522949219	249.4507446289063	44.80696487426766	462.0649108886719	254.2184600830078	43.34051132202157	402.7865905761719	65.6736755371094	138.593231201172	622.5077514648438	45.40554809570316	129.2096710205079	570.32275390625	32.14255142211918	30.81734466552745	304.6110534667968	666.787841796875	389.6230163574219	358.1918640136718	614.063232421875	416.1726989746094	316.9874877929686	606.3385009765625	389.0245361328126	211.8546905517577	411.6538696289062	399.3284301757813	179.6398468017577	339.5577392578125	394.6432495117188	162.0535125732421	382.2327575683594	376.1472778320313	8.615271568298276	291.2112731933594	252.6244201660156	39.32710647583002	83.10453033447266	281.8154602050781	-4.437860965728836	134.2843475341797	371.6074829101562	461.8591918945311	1325.220703125	183.0176849365235	477.5800781249999	1180.973388671875	191.061996459961	373.9564514160156	1380.433715820312	4.312356472015449	357.6218261718749	1221.247924804688	-91.00761413574212	338.7468872070312	1160.151489257812	-107.0642929077148	385.5195007324218	1161.589111328125	-86.3764572143554	352.7770385742187	958.2332763671875	-130.9902038574218	308.3348693847656	895.1080322265625	-113.0408554077148	354.5432128906249	896.5	-131.4813995361328	366.9600830078124	793.7191162109375	-136.5994720458984	411.7192993164062	789.7202758789062	-70.62409973144524	375.9359436035155	1388.644165039062	348.2042846679688	371.0159606933593	1245.671997070312	452.2681274414063	400.194122314453	1186.912231445312	461.6314392089844	351.5968017578123	1187.723388671875	478.0698242187501	431.5872192382811	972.9706420898438	508.1428222656251	504.350616455078	943.5524291992188	525.0143432617189	464.2326660156248	919.7564697265625	505.9566040039064	531.3345336914061	857.7647094726562	508.4571533203126	565.8775634765624	863.4258422851562	434.3529357910157	
153	0.76	521.2045288085936	1592.528198242188	178.3374633789063	469.199981689453	1620.947631835938	240.4490966796876	478.9162292480468	1609.55810546875	102.7434463500977	298.4084472656248	1428.159912109375	175.6980438232422	239.8089599609374	1259.97265625	180.0443420410157	231.8680419921874	1218.992553710938	160.6073455810547	225.5836181640624	1213.405883789062	210.2990264892578	235.9349975585937	1155.496948242188	179.0280761718751	260.8665466308593	1089.468994140625	183.6860961914063	223.363296508789	1051.9443359375	170.3586730957032	222.2250976562499	1050.649658203125	220.8812866210938	218.8508911132812	990.0482788085938	192.4358062744141	236.905792236328	941.710693359375	166.2206115722657	236.9346313476562	937.3468627929688	217.3121337890626	223.8299865722655	879.8081665039062	187.1475677490235	405.8349304199218	660.8340454101562	13.99531364440925	370.8064270019531	593.1620483398438	35.5335769653321	418.9417419433593	602.8956909179688	27.78612899780281	456.9134521484375	315.3171997070312	33.56806182861337	412.93212890625	249.7183990478516	44.75300598144539	462.8957214355469	254.2057647705078	43.19153976440438	402.85986328125	65.77860260009768	138.7330474853516	622.5330200195312	45.36674499511722	129.232879638672	570.2977294921875	32.17049026489261	30.77068901062022	314.516876220703	667.120849609375	389.0600280761719	368.8224792480468	615.3289794921875	416.0053710937501	327.8869628906249	606.8543090820312	388.6887817382813	225.2460327148436	413.647216796875	398.2898864746094	192.6355438232421	341.7247314453125	393.6812744140626	175.4527587890624	384.3862915039062	374.8426818847657	21.61902427673333	293.300537109375	250.3907012939453	54.00043869018549	85.4620361328125	281.2911987304688	9.459452629089279	137.1375427246094	370.3071899414062	468.4227600097655	1326.429565429688	182.3662109375001	484.2062683105468	1182.200439453125	190.3120269775391	380.6590270996093	1381.703491210938	3.586408853530954	365.1335754394531	1222.566284179688	-91.91970825195305	346.5735473632812	1161.424682617188	-108.0713653564453	393.2844543457031	1163.033569335938	-87.23497009277337	362.1833190917968	959.3799438476562	-132.0216979980468	318.2875976562499	895.8292846679688	-114.2245178222656	364.5955505371093	897.6592407226562	-132.3655853271484	378.0717468261718	794.9625244140625	-137.1600799560546	422.7687683105468	791.6799926757812	-71.04004669189446	382.2310791015624	1389.684814453125	347.5834350585938	376.8861694335936	1246.588623046875	451.5153503417969	405.9172363281249	1187.7734375	460.8694458007813	357.3330993652342	1188.701538085938	477.3671875000001	435.2663574218748	973.3753051757812	507.6401367187501	507.5683593749998	942.9161987304688	524.8349609375001	467.1122436523436	919.640625	505.7843017578126	533.2769775390624	856.7109985351562	508.7834777832032	567.7878417968749	861.2484130859375	434.5867614746095	
